# xmcd
#
# Track frame offsets:
#	150
#	12572
#	22645
#	35057
#	55840
#	70372
#	82345
#	94052
#	110570
#	131785
#	150782
#	157447
#	175452
#	191145
#	205450
#	220600
#	233560
#	246000
#	257560
#	274890
#	292387
#	310462
#	328365
#
# Disc length: 4665 seconds
#
# Revision: 0
# Processed by: cddbd v1.4PL0 Copyright (c) Steve Scherf et al.
# Submitted via: EasyCDDAExtractor 4.6.9.1
#
DISCID=65123717
DTITLE=Gram Parsons - Under Your Spell Again disc 1
DYEAR=1900
DGENRE=Country
TTITLE0=Rip It Up
TTITLE1=Sum Up Broke
TTITLE2=One Day Week
TTITLE3=Hickory Wind
TTITLE4=Sing Me Back Home
TTITLE5=The Christian Life
TTITLE6=Under Your Spell Again
TTITLE7=You Don't Miss Your Water
TTITLE8=Eight Miles High
TTITLE9=Space Odyssey
TTITLE10=Tribal Gathering
TTITLE11=Sin City
TTITLE12=Take A Message To Mary
TTITLE13=She Thinks I Still Care
TTITLE14=Christine's Tune
TTITLE15=Sweet Dreams Baby
TTITLE16=Wake Up Little Susie
TTITLE17=Buckaroo
TTITLE18=Another Place,Another Time
TTITLE19=High On A Hilltop
TTITLE20=She Once Lived Here
TTITLE21=Hot Burrito No1
TTITLE22=Everyone Loves A Winner
EXTD=
EXTT0=
EXTT1=
EXTT2=
EXTT3=
EXTT4=
EXTT5=
EXTT6=
EXTT7=
EXTT8=
EXTT9=
EXTT10=
EXTT11=
EXTT12=
EXTT13=
EXTT14=
EXTT15=
EXTT16=
EXTT17=
EXTT18=
EXTT19=
EXTT20=
EXTT21=
EXTT22=
PLAYORDER=
